<svg width="44" height="43" viewBox="0 0 44 43" fill="none" xmlns="http://www.w3.org/2000/svg">
<g clip-path="url(#clip0)">
<path d="M12.3562 0.274062C11.987 -0.084534 11.3985 -0.0741958 11.0419 0.297017C10.694 0.659205 10.694 1.23333 11.0419 1.59543L30.8317 21.4953L11.0401 41.3933C10.6709 41.7519 10.6607 42.3434 11.0172 42.7147C11.3739 43.086 11.9622 43.0962 12.3315 42.7377C12.3393 42.7302 12.3468 42.7225 12.3543 42.7147L32.8022 22.1551C33.165 21.7902 33.165 21.1986 32.8022 20.8336L12.3562 0.274062Z" fill="#333333"/>
<path d="M11.6982 42.9895C11.1849 42.9904 10.768 42.5727 10.7671 42.0566C10.7667 41.8078 10.8649 41.569 11.0402 41.3933L30.8318 21.4953L11.0402 1.59733C10.6767 1.2319 10.6767 0.639472 11.0402 0.274042C11.4036 -0.091388 11.9928 -0.091388 12.3563 0.274042L32.8041 20.8337C33.1669 21.1986 33.1669 21.7902 32.8041 22.1552L12.3563 42.7147C12.182 42.8906 11.9452 42.9895 11.6982 42.9895Z" fill="#333333"/>
</g>
<defs>
<clipPath id="clip0">
<rect width="42.7661" height="43" fill="white" transform="translate(0.533203)"/>
</clipPath>
</defs>
</svg>
