<svg width="44" height="43" viewBox="0 0 44 43" fill="none" xmlns="http://www.w3.org/2000/svg">
<g clip-path="url(#clip0)">
<path d="M31.7527 0.274062C32.1219 -0.084534 32.7104 -0.0741958 33.067 0.297017C33.4148 0.659205 33.4148 1.23333 33.067 1.59543L13.2772 21.4953L33.0688 41.3933C33.438 41.7519 33.4482 42.3434 33.0917 42.7147C32.735 43.086 32.1467 43.0962 31.7774 42.7377C31.7696 42.7302 31.7621 42.7225 31.7546 42.7147L11.3067 22.1551C10.9439 21.7902 10.9439 21.1986 11.3067 20.8336L31.7527 0.274062Z" fill="#333333"/>
<path d="M32.4107 42.9895C32.924 42.9904 33.3408 42.5727 33.3418 42.0566C33.3422 41.8078 33.2439 41.569 33.0687 41.3933L13.2771 21.4953L33.0687 1.59733C33.4322 1.2319 33.4322 0.639472 33.0687 0.274042C32.7053 -0.091388 32.1161 -0.091388 31.7526 0.274042L11.3048 20.8337C10.942 21.1986 10.942 21.7902 11.3048 22.1552L31.7526 42.7147C31.9269 42.8906 32.1637 42.9895 32.4107 42.9895Z" fill="#333333"/>
</g>
<defs>
<clipPath id="clip0">
<rect width="42.7661" height="43" fill="white" transform="matrix(-1 0 0 1 43.5757 0)"/>
</clipPath>
</defs>
</svg>
