<svg width="36" height="34" viewBox="0 0 36 34" fill="none" xmlns="http://www.w3.org/2000/svg">
<g clip-path="url(#clip0)">
<path d="M18 34C18.177 34 18.354 33.9405 18.4965 33.8229C19.0275 33.3809 31.5 22.8707 31.5 12.75C31.5 5.7205 25.443 0 18 0C10.557 0 4.5 5.7205 4.5 12.75C4.5 22.8707 16.9725 33.3809 17.5035 33.8229C17.646 33.9405 17.823 34 18 34ZM18 1.41667C24.6165 1.41667 30 6.50108 30 12.75C30 21.1324 20.3235 30.2586 18 32.3283C15.6765 30.2586 6 21.1338 6 12.75C6 6.50108 11.3835 1.41667 18 1.41667Z" fill="#FCFCFC"/>
<path d="M12.7501 19.8333H24.7501C25.1071 19.8333 25.4146 19.5953 25.4851 19.2638L26.9851 12.1805C27.0301 11.9723 26.9716 11.7569 26.8306 11.5926C26.6881 11.4283 26.4751 11.3333 26.2501 11.3333H11.4616L10.4776 7.62026C10.3786 7.24059 9.9706 7.00684 9.5686 7.10459C9.1666 7.19951 8.9221 7.58342 9.0226 7.96309L12.0226 19.2964C12.1066 19.6123 12.4066 19.8333 12.7501 19.8333ZM24.1351 18.4167H13.3351L11.8351 12.75H25.3351L24.1351 18.4167Z" fill="#FCFCFC"/>
<path d="M21 24.0833C21.8265 24.0833 22.5 23.4487 22.5 22.6667C22.5 21.8847 21.8265 21.25 21 21.25C20.1735 21.25 19.5 21.8847 19.5 22.6667C19.5 23.4487 20.1735 24.0833 21 24.0833Z" fill="#FCFCFC"/>
<path d="M15 24.0833C15.8265 24.0833 16.5 23.4487 16.5 22.6667C16.5 21.8847 15.8265 21.25 15 21.25C14.1735 21.25 13.5 21.8847 13.5 22.6667C13.5 23.4487 14.1735 24.0833 15 24.0833Z" fill="#FCFCFC"/>
</g>
<defs>
<clipPath id="clip0">
<rect width="36" height="34" fill="white" transform="matrix(-1 0 0 1 36 0)"/>
</clipPath>
</defs>
</svg>
