<svg width="80" height="80" viewBox="0 0 80 80" fill="none" xmlns="http://www.w3.org/2000/svg">
<path d="M25.4006 56.9216C25.2062 56.9213 25.0185 56.8503 24.8726 56.7217C24.7268 56.5931 24.6327 56.4158 24.6081 56.2229L19.47 16.288H14.4001C14.1879 16.288 13.9844 16.2037 13.8344 16.0537C13.6844 15.9036 13.6001 15.7002 13.6001 15.488C13.6001 15.2758 13.6844 15.0723 13.8344 14.9223C13.9844 14.7723 14.1879 14.688 14.4001 14.688H20.174C20.3684 14.6882 20.5561 14.759 20.7021 14.8874C20.8481 15.0157 20.9425 15.1928 20.9676 15.3856L26.094 55.2267L65.4988 50.2069C65.7055 50.1879 65.9115 50.2499 66.0734 50.3797C66.2354 50.5096 66.3405 50.6973 66.3668 50.9032C66.3931 51.1091 66.3384 51.3172 66.2143 51.4836C66.0902 51.65 65.9063 51.7617 65.7014 51.7952L25.503 56.9152C25.4691 56.9194 25.4349 56.9216 25.4006 56.9216Z" fill="#F24848"/>
<path d="M33.0669 65.312C32.0931 65.3115 31.1578 64.9317 30.4593 64.2532C29.7608 63.5746 29.3541 62.6507 29.3254 61.6773C29.2967 60.7039 29.6482 59.7576 30.3055 59.0391C30.9628 58.3206 31.8742 57.8863 32.8463 57.8285C33.8184 57.7706 34.7748 58.0937 35.5127 58.7291C36.2506 59.3646 36.7119 60.2625 36.7989 61.2324C36.8859 62.2024 36.5916 63.168 35.9786 63.9246C35.3655 64.6813 34.4818 65.1693 33.5149 65.2853C33.3663 65.3032 33.2167 65.3121 33.0669 65.312ZM33.0669 59.4293C32.9814 59.429 32.8959 59.434 32.8109 59.4442C32.2573 59.5099 31.751 59.7887 31.3995 60.2214C31.0479 60.6542 30.8788 61.2068 30.9279 61.7621C30.977 62.3175 31.2405 62.8319 31.6625 63.1962C32.0845 63.5605 32.6318 63.7461 33.1884 63.7137C33.745 63.6812 34.267 63.4332 34.6438 63.0223C35.0206 62.6114 35.2225 62.0698 35.2067 61.5125C35.1909 60.9552 34.9586 60.426 34.5592 60.0371C34.1597 59.6482 33.6244 59.4302 33.0669 59.4293Z" fill="#F24848"/>
<path d="M32.9598 61.424C32.7643 61.4236 32.5757 61.3517 32.4295 61.2218C32.2833 61.0919 32.1897 60.9131 32.1662 60.7189L31.5262 55.392C31.5009 55.1812 31.5603 54.9691 31.6915 54.8021C31.8226 54.6352 32.0147 54.5272 32.2254 54.5019C32.4362 54.4766 32.6484 54.536 32.8153 54.6671C32.9822 54.7982 33.0902 54.9903 33.1156 55.2011L33.7556 60.5344C33.7802 60.7451 33.7205 60.9569 33.5893 61.1237C33.4582 61.2904 33.2664 61.3984 33.0558 61.424C33.0228 61.4219 32.9918 61.424 32.9598 61.424Z" fill="#F24848"/>
<path d="M59.4723 62.0341C58.7522 62.0339 58.0475 61.8258 57.4427 61.4349C56.838 61.0441 56.3588 60.487 56.0628 59.8306C55.7668 59.1742 55.6664 58.4464 55.7738 57.7343C55.8811 57.0223 56.1917 56.3564 56.6681 55.8165C57.1445 55.2766 57.7666 54.8856 58.4598 54.6904C59.1529 54.4953 59.8876 54.5043 60.5757 54.7163C61.2639 54.9284 61.8762 55.3345 62.3393 55.8859C62.8024 56.4373 63.0965 57.1106 63.1864 57.8251C63.252 58.3518 63.2049 58.8864 63.0483 59.3935C62.8917 59.9006 62.6291 60.3687 62.2779 60.7666C61.9267 61.1646 61.495 61.4834 61.0113 61.7019C60.5276 61.9204 60.003 62.0337 59.4723 62.0341ZM59.4797 56.1515C59.1753 56.1502 58.8741 56.2138 58.5962 56.3381C58.3183 56.4625 58.0702 56.6446 57.8683 56.8725C57.6664 57.1003 57.5154 57.3686 57.4254 57.6594C57.3354 57.9502 57.3085 58.2569 57.3464 58.5589C57.3989 58.9793 57.5749 59.3747 57.8521 59.6949C58.1294 60.0152 58.4954 60.246 58.904 60.3582C59.3125 60.4703 59.7451 60.4588 60.147 60.3249C60.5489 60.1911 60.9021 59.9411 61.1619 59.6064C61.335 59.3847 61.4624 59.1308 61.5368 58.8594C61.6111 58.5881 61.6309 58.3047 61.5949 58.0256C61.5298 57.5091 61.2787 57.034 60.8886 56.6892C60.4985 56.3444 59.9961 56.1537 59.4755 56.1526L59.4797 56.1515Z" fill="#F24848"/>
<path d="M59.3543 58.1472C59.1594 58.1469 58.9713 58.0756 58.8252 57.9466C58.6792 57.8176 58.5851 57.6397 58.5607 57.4464L57.8919 52.1227C57.8656 51.912 57.924 51.6996 58.0544 51.5321C58.1847 51.3645 58.3762 51.2556 58.5868 51.2293C58.7975 51.203 59.0099 51.2614 59.1774 51.3918C59.345 51.5221 59.4539 51.7136 59.4802 51.9243L60.149 57.2469C60.163 57.3596 60.153 57.474 60.1195 57.5825C60.086 57.691 60.0298 57.7911 59.9546 57.8762C59.8795 57.9614 59.7871 58.0296 59.6836 58.0763C59.5801 58.123 59.4679 58.1472 59.3543 58.1472Z" fill="#F24848"/>
<path d="M28.0994 53.5253C27.905 53.5251 27.7173 53.454 27.5714 53.3255C27.4255 53.1969 27.3315 53.0196 27.3069 52.8267L24.5901 31.5733C24.5766 31.4691 24.5839 31.3632 24.6114 31.2618C24.6389 31.1604 24.6862 31.0654 24.7505 30.9822C24.8148 30.8991 24.8949 30.8295 24.9861 30.7773C25.0774 30.7252 25.1781 30.6916 25.2823 30.6784L40.8269 28.6933C40.9311 28.68 41.0369 28.6874 41.1383 28.715C41.2397 28.7425 41.3346 28.7898 41.4177 28.8541C41.5008 28.9184 41.5705 28.9984 41.6226 29.0896C41.6748 29.1808 41.7085 29.2814 41.7218 29.3856L44.4375 50.6368C44.4509 50.741 44.4435 50.8469 44.4159 50.9482C44.3883 51.0496 44.3411 51.1446 44.2768 51.2277C44.2125 51.3108 44.1325 51.3804 44.0413 51.4326C43.9501 51.4847 43.8495 51.5184 43.7453 51.5317L28.2007 53.5189C28.1671 53.5232 28.1333 53.5253 28.0994 53.5253ZM26.2786 32.1685L28.7917 51.8304L42.749 50.0459L40.237 30.384L26.2786 32.1685Z" fill="#F24848"/>
<path d="M51.0773 36.0896C50.8827 36.0896 50.6949 36.0186 50.549 35.89C50.4031 35.7613 50.3091 35.5839 50.2847 35.3909L48.1354 18.5728L30.7381 20.8L31.9999 30.6272C32.0268 30.8377 31.969 31.0502 31.8391 31.218C31.7093 31.3859 31.5181 31.4952 31.3077 31.5221C31.0972 31.549 30.8847 31.4912 30.7168 31.3613C30.549 31.2315 30.4396 31.0403 30.4127 30.8299L29.0538 20.2059C29.0405 20.1016 29.0479 19.9957 29.0755 19.8942C29.1032 19.7928 29.1506 19.6978 29.2149 19.6147C29.2793 19.5315 29.3595 19.4619 29.4508 19.4098C29.5421 19.3577 29.6428 19.3241 29.7471 19.3109L48.7338 16.8843C48.9442 16.8579 49.1564 16.916 49.3241 17.0457C49.4918 17.1754 49.6013 17.3663 49.6287 17.5765L51.8794 35.1882C51.8927 35.2925 51.8853 35.3984 51.8577 35.4999C51.83 35.6013 51.7826 35.6963 51.7182 35.7794C51.6538 35.8626 51.5737 35.9322 51.4824 35.9843C51.3911 36.0364 51.2904 36.07 51.1861 36.0832C51.15 36.0877 51.1136 36.0899 51.0773 36.0896Z" fill="#F24848"/>
<path d="M43.6426 51.5381C43.4481 51.5379 43.2604 51.4668 43.1145 51.3382C42.9687 51.2096 42.8746 51.0323 42.85 50.8394L41.0271 36.5792C41.0136 36.4749 41.0209 36.3691 41.0484 36.2676C41.0759 36.1662 41.1232 36.0712 41.1875 35.9881C41.2518 35.9049 41.3319 35.8353 41.4232 35.7832C41.5144 35.731 41.6151 35.6974 41.7193 35.6842L57.2649 33.696C57.475 33.6711 57.6866 33.7288 57.8548 33.857C57.9381 33.9216 58.0078 34.0019 58.0599 34.0934C58.1121 34.185 58.1457 34.2859 58.1588 34.3904L59.9818 48.6517C59.9952 48.756 59.988 48.8618 59.9604 48.9633C59.9329 49.0647 59.8856 49.1597 59.8213 49.2428C59.757 49.326 59.6769 49.3956 59.5857 49.4477C59.4944 49.4999 59.3938 49.5335 59.2895 49.5467L43.745 51.5317C43.711 51.5359 43.6768 51.5381 43.6426 51.5381ZM42.7156 37.1701L44.3348 49.8432L58.2932 48.0587L56.674 35.3845L42.7156 37.1701Z" fill="#F24848"/>
<path d="M37.6298 24.0928C37.4354 24.0925 37.2477 24.0215 37.1018 23.8929C36.9559 23.7643 36.8619 23.587 36.8373 23.3941L36.3114 19.2821C36.2978 19.1778 36.3049 19.0718 36.3324 18.9703C36.3598 18.8687 36.4071 18.7736 36.4714 18.6903C36.5357 18.6071 36.6159 18.5373 36.7072 18.4851C36.7985 18.4329 36.8993 18.3993 37.0037 18.3861L41.4645 17.8165C41.6749 17.7918 41.8867 17.8495 42.0554 17.9776C42.1387 18.0421 42.2084 18.1225 42.2605 18.214C42.3127 18.3055 42.3463 18.4064 42.3594 18.5109L42.8842 22.6229C42.8977 22.7272 42.8904 22.833 42.8629 22.9345C42.8354 23.0359 42.7881 23.1309 42.7238 23.214C42.6595 23.2972 42.5794 23.3668 42.4881 23.4189C42.3969 23.4711 42.2962 23.5047 42.1919 23.5179L37.7322 24.0885C37.6982 24.0921 37.664 24.0935 37.6298 24.0928ZM37.9999 19.872L38.3199 22.3979L41.1925 22.0299L40.8725 19.5051L37.9999 19.872Z" fill="#F24848"/>
</svg>
