<svg width="65" height="65" viewBox="0 0 65 65" fill="none" xmlns="http://www.w3.org/2000/svg">
<path d="M47.8016 56.1153C47.0485 56.1153 46.3124 56.3387 45.6863 56.7571C45.0601 57.1754 44.5721 57.7701 44.2839 58.4659C43.9958 59.1616 43.9204 59.9272 44.0673 60.6658C44.2143 61.4044 44.5769 62.0828 45.1094 62.6153C45.6419 63.1478 46.3203 63.5104 47.0589 63.6573C47.7975 63.8042 48.5631 63.7288 49.2588 63.4406C49.9546 63.1524 50.5492 62.6644 50.9676 62.0382C51.386 61.4121 51.6093 60.6759 51.6093 59.9229C51.6082 58.9134 51.2066 57.9455 50.4928 57.2317C49.7789 56.5179 48.8111 56.1164 47.8016 56.1153ZM47.8016 62.207C47.3498 62.207 46.9082 62.073 46.5326 61.822C46.157 61.571 45.8643 61.2143 45.6914 60.7969C45.5185 60.3795 45.4733 59.9203 45.5615 59.4772C45.6496 59.0341 45.8672 58.6271 46.1866 58.3077C46.5061 57.9883 46.9131 57.7707 47.3562 57.6826C47.7992 57.5945 48.2585 57.6397 48.6759 57.8126C49.0932 57.9855 49.4499 58.2783 49.7009 58.6539C49.9519 59.0295 50.0859 59.4711 50.0859 59.9229C50.0852 60.5285 49.8443 61.1091 49.4161 61.5373C48.9878 61.9655 48.4072 62.2064 47.8016 62.207Z" fill="#F24848"/>
<path d="M36.4748 56.1153C35.7217 56.1152 34.9856 56.3385 34.3594 56.7569C33.7332 57.1752 33.2451 57.7699 32.9569 58.4656C32.6687 59.1613 32.5932 59.9269 32.7401 60.6655C32.887 61.4042 33.2496 62.0826 33.7821 62.6151C34.3146 63.1477 34.9931 63.5103 35.7317 63.6573C36.4703 63.8042 37.2359 63.7288 37.9316 63.4406C38.6274 63.1525 39.222 62.6644 39.6404 62.0383C40.0588 61.4121 40.2821 60.676 40.2821 59.9229C40.281 58.9134 39.8795 57.9457 39.1658 57.2319C38.452 56.5181 37.4843 56.1165 36.4748 56.1153ZM36.4748 62.207C36.0231 62.2071 35.5814 62.0731 35.2058 61.8222C34.8301 61.5712 34.5373 61.2145 34.3644 60.7972C34.1915 60.3798 34.1462 59.9205 34.2343 59.4774C34.3224 59.0343 34.5399 58.6273 34.8594 58.3078C35.1788 57.9884 35.5858 57.7708 36.0289 57.6826C36.472 57.5945 36.9312 57.6397 37.3486 57.8126C37.766 57.9855 38.1228 58.2782 38.3737 58.6538C38.6247 59.0295 38.7587 59.4711 38.7587 59.9229C38.758 60.5284 38.5172 61.1089 38.089 61.5371C37.6609 61.9653 37.0804 62.2062 36.4748 62.207Z" fill="#F24848"/>
<path d="M60.6651 29.1692H58.4307C57.4564 29.1655 56.513 29.5109 55.7715 30.1429C55.03 30.7749 54.5394 31.6517 54.3888 32.6142L53.9862 34.8548H49.156C49.2045 33.9235 49.2262 32.6966 49.2262 32.2746V12.8673C49.2262 12.725 49.1864 12.5855 49.1111 12.4646C49.0359 12.3438 48.9283 12.2465 48.8006 12.1837L26.7378 1.34747C26.6333 1.29635 26.5186 1.26978 26.4024 1.26978C26.2861 1.26978 26.1714 1.29635 26.0669 1.34747L3.99944 12.1549C3.87143 12.2176 3.76358 12.3149 3.68815 12.4358C3.61272 12.5568 3.57274 12.6965 3.57275 12.839V32.2755C3.57275 37.8588 7.0533 44.4421 11.6686 47.589L25.9701 57.3429C26.0966 57.4292 26.2462 57.4754 26.3993 57.4754C26.5524 57.4754 26.702 57.4292 26.8285 57.3429L32.0598 53.7756L39.1467 48.9337H51.4564L51.2191 50.254C51.2181 50.2592 51.2174 50.2644 51.2166 50.2696C51.1231 50.8752 50.8155 51.4271 50.3495 51.8251C49.8836 52.223 49.2903 52.4405 48.6775 52.4381H36.3364C36.1344 52.4381 35.9407 52.5184 35.7978 52.6612C35.655 52.8041 35.5747 52.9978 35.5747 53.1998C35.5747 53.4018 35.655 53.5956 35.7978 53.7384C35.9407 53.8813 36.1344 53.9615 36.3364 53.9615H48.6777C49.6521 53.9653 50.5956 53.6199 51.3372 52.9877C52.0788 52.3556 52.5693 51.4787 52.7199 50.5159L55.8895 32.8781C55.8905 32.8729 55.8914 32.8677 55.8922 32.8624C55.9856 32.2568 56.2932 31.7048 56.7592 31.3069C57.2251 30.9089 57.8185 30.6913 58.4312 30.6938H60.6656C60.8676 30.6938 61.0614 30.6136 61.2042 30.4707C61.3471 30.3279 61.4273 30.1341 61.4273 29.9321C61.4273 29.7301 61.3471 29.5363 61.2042 29.3935C61.0614 29.2506 60.8676 29.1704 60.6656 29.1704L60.6651 29.1692ZM31.2009 52.5159L26.3993 55.7913L12.5269 46.3299C8.29071 43.4416 5.09619 37.3994 5.09619 32.275V13.3141L26.4015 2.87966L47.7027 13.3419V32.275C47.7027 32.788 47.6758 34.0162 47.6303 34.8552H43.5128C43.6926 33.9219 43.7898 32.9745 43.8033 32.0242V16.4531C43.8033 16.3107 43.7635 16.1712 43.6882 16.0503C43.6129 15.9295 43.5053 15.8321 43.3775 15.7693L26.7352 7.59572C26.6308 7.5446 26.5161 7.51803 26.3998 7.51803C26.2836 7.51803 26.1688 7.5446 26.0644 7.59572L9.42212 15.7461C9.29409 15.8088 9.18621 15.9061 9.11076 16.0271C9.0353 16.148 8.9953 16.2877 8.9953 16.4303V32.0243C8.9953 35.9459 11.6333 40.9345 14.8754 43.1454L25.9701 50.7118C26.0953 50.7971 26.2431 50.8432 26.3946 50.8441C26.5461 50.845 26.6945 50.8007 26.8207 50.7169L31.2907 47.7471C32.0567 48.5062 33.0914 48.9323 34.1699 48.9328H36.4461L31.2009 52.5159ZM26.5809 35.8757L30.3016 46.1789C30.3387 46.286 30.3803 46.3906 30.4255 46.4928L26.4049 49.1644L15.7337 41.8863C12.9069 39.9591 10.5187 35.4429 10.5187 32.0243V16.9053L26.3988 9.12792L42.2799 16.9279V32.0243C42.2649 32.9762 42.1571 33.9244 41.9579 34.8554H27.2974C27.1751 34.8553 27.0546 34.8848 26.946 34.9412C26.8375 34.9976 26.7442 35.0793 26.6739 35.1793C26.6036 35.2794 26.5585 35.395 26.5423 35.5162C26.5261 35.6374 26.5393 35.7608 26.5809 35.8758V35.8757ZM51.7303 47.4092H34.1699C33.634 47.4085 33.1118 47.2406 32.6759 46.929C32.24 46.6174 31.9122 46.1776 31.7381 45.6709L28.3824 36.3787H53.7124L51.7303 47.4092Z" fill="#F24848"/>
<path d="M32.6081 25.2817C32.5405 25.2079 32.4591 25.1482 32.3684 25.1059C32.2778 25.0636 32.1797 25.0395 32.0797 25.0352C31.9798 25.0308 31.8799 25.0461 31.7859 25.0803C31.6919 25.1145 31.6056 25.1669 31.5318 25.2345L24.7007 31.4914L21.3124 27.8172C21.1755 27.6687 20.9852 27.5807 20.7833 27.5725C20.5814 27.5643 20.3846 27.6367 20.2361 27.7736C20.0876 27.9106 19.9995 28.1009 19.9913 28.3028C19.9832 28.5046 20.0555 28.7015 20.1925 28.85L24.0955 33.0822C24.2322 33.2304 24.422 33.3184 24.6234 33.3269C24.8248 33.3354 25.0214 33.2637 25.17 33.1275L32.5607 26.3579C32.7097 26.2215 32.7984 26.0314 32.8073 25.8296C32.8162 25.6278 32.7445 25.4307 32.6081 25.2817Z" fill="#F24848"/>
</svg>
