<svg width="65" height="65" viewBox="0 0 65 65" fill="none" xmlns="http://www.w3.org/2000/svg">
<g clip-path="url(#clip0)">
<path d="M62.5184 12.0222L22.709 3.5974C21.0247 3.24107 19.3553 4.3277 18.999 6.01198L18.2427 10.8724L64.176 20.5926L64.9323 15.7322C65.2886 14.0486 64.2026 12.3786 62.5184 12.0222Z" fill="#F24848"/>
<path d="M45.7774 21.6234C45.3124 19.9489 43.5625 18.9591 41.8886 19.4233L34.3313 21.5213L16.5154 17.7509L14.5561 27.0086L2.31391 30.4065C0.640045 30.8708 -0.349724 32.6208 0.114519 34.2947L7.0137 59.1561C7.47868 60.83 9.2287 61.8204 10.9026 61.3555L50.4772 50.3731C52.1511 49.9081 53.1408 48.1588 52.6766 46.4842L51.4924 42.2163L55.9308 43.1547C57.615 43.5116 59.2844 42.425 59.6408 40.7407L62.4489 27.4712L46.4615 24.0881L45.7774 21.6234ZM50.3477 34.2589L51.3265 29.6333C51.4735 28.9407 52.1602 28.494 52.8527 28.6402L57.4784 29.6196C58.1716 29.7666 58.6183 30.4526 58.4721 31.1458L57.4933 35.7715C57.3463 36.4641 56.6597 36.9114 55.9671 36.7645L51.3414 35.7858C50.6476 35.6383 50.2007 34.9515 50.3477 34.2589ZM3.00258 32.8875L13.9544 29.8492L39.7952 22.6782L42.5758 21.9057C42.6266 21.892 42.6773 21.8855 42.7268 21.8855C42.9498 21.8855 43.2165 22.0319 43.2945 22.3121L43.6209 23.4879L44.6438 27.1738L3.94551 38.4677L2.59611 33.6067C2.51157 33.3017 2.69765 32.972 3.00258 32.8875ZM50.1949 47.1721C50.2469 47.3608 50.1924 47.5168 50.137 47.6144C50.0824 47.7119 49.9771 47.8395 49.7884 47.8914L10.2145 58.8738C10.1645 58.8875 10.1131 58.8946 10.0636 58.8946C9.84058 58.8946 9.57389 58.7476 9.49593 58.4674L5.47185 43.9661L46.1702 32.6715L48.6524 41.6152L50.1949 47.1721Z" fill="#F24848"/>
<path d="M16.6092 48.1644C16.4193 47.4816 15.7066 47.0785 15.0237 47.2677L10.402 48.5507C9.71983 48.74 9.31602 49.4534 9.50592 50.1362L10.7883 54.7573C10.9782 55.4401 11.691 55.8433 12.3738 55.6534L16.9955 54.371C17.6783 54.1818 18.0815 53.4683 17.8923 52.7855L16.6092 48.1644Z" fill="#F24848"/>
</g>
<defs>
<clipPath id="clip0">
<rect width="65" height="65" fill="white"/>
</clipPath>
</defs>
</svg>
