<svg width="150" height="150" viewBox="0 0 150 150" fill="none" xmlns="http://www.w3.org/2000/svg">
<path d="M15 30H135C143.284 30 150 23.284 150 15C150 6.716 143.284 0 135 0H15C6.716 0 0 6.716 0 15C0 23.284 6.716 30 15 30Z" fill="#FCFCFC"/>
<path d="M135 60H15C6.716 60 0 66.716 0 75C0 83.284 6.716 90 15 90H135C143.284 90 150 83.284 150 75C150 66.716 143.284 60 135 60Z" fill="#FCFCFC"/>
<path d="M135 120H15C6.716 120 0 126.716 0 135C0 143.284 6.716 150 15 150H135C143.284 150 150 143.284 150 135C150 126.716 143.284 120 135 120Z" fill="#FCFCFC"/>
</svg>
