<svg width="34" height="34" viewBox="0 0 34 34" fill="none" xmlns="http://www.w3.org/2000/svg">
<g clip-path="url(#clip0)">
<path d="M27.738 26.4735L22.1249 20.8605C23.5202 19.1827 24.3607 17.0282 24.3607 14.6807C24.3607 9.34272 20.0181 5 14.6804 5C9.3426 5 5 9.34272 5 14.6807C5 20.0182 9.3426 24.3606 14.6804 24.3606C17.0278 24.3606 19.1824 23.5202 20.8602 22.1249L26.4735 27.7381C26.648 27.9127 26.877 28 27.1058 28C27.3346 28 27.5635 27.9127 27.7382 27.7381C28.0874 27.3888 28.0874 26.8227 27.738 26.4735ZM6.78845 14.6807C6.78845 10.3289 10.3288 6.78845 14.6804 6.78845C19.032 6.78845 22.5722 10.3289 22.5722 14.6807C22.5722 19.0321 19.032 22.5722 14.6804 22.5722C10.3288 22.5722 6.78845 19.0321 6.78845 14.6807Z" fill="#333333"/>
</g>
<defs>
<clipPath id="clip0">
<rect width="23" height="23" fill="white" transform="translate(5 5)"/>
</clipPath>
</defs>
</svg>
